<svg width="512" height="512" viewBox="0 0 512 512" fill="none" xmlns="http://www.w3.org/2000/svg">
  <defs>
    <linearGradient id="grad1" x1="0%" y1="0%" x2="100%" y2="100%">
      <stop offset="0%" style="stop-color:#22d3ee;stop-opacity:1" />
      <stop offset="100%" style="stop-color:#3b82f6;stop-opacity:1" />
    </linearGradient>
  </defs>
  
  <!-- 背景 -->
  <rect width="512" height="512" rx="80" fill="#0f172a"/>
  
  <!-- 3x3 パズルグリッド -->
  <!-- 1行目 -->
  <rect x="70" y="70" width="110" height="110" rx="10" fill="url(#grad1)" opacity="0.9"/>
  <rect x="200" y="70" width="110" height="110" rx="10" fill="url(#grad1)" opacity="0.8"/>
  <rect x="330" y="70" width="110" height="110" rx="10" fill="url(#grad1)" opacity="0.95"/>
  
  <!-- 2行目 -->
  <rect x="70" y="200" width="110" height="110" rx="10" fill="url(#grad1)" opacity="0.75"/>
  <rect x="200" y="200" width="110" height="110" rx="10" fill="url(#grad1)" opacity="1"/>
  <rect x="330" y="200" width="110" height="110" rx="10" fill="url(#grad1)" opacity="0.7"/>
  
  <!-- 3行目 (空マス含む) -->
  <rect x="70" y="330" width="110" height="110" rx="10" fill="url(#grad1)" opacity="0.85"/>
  <rect x="200" y="330" width="110" height="110" rx="10" fill="url(#grad1)" opacity="0.65"/>
  <!-- 空マス (右下) -->
  <rect x="330" y="330" width="110" height="110" rx="10" fill="#1e293b" stroke="url(#grad1)" stroke-width="4" opacity="0.5"/>
  
  <!-- グリッド線 -->
  <line x1="190" y1="70" x2="190" y2="440" stroke="#334155" stroke-width="5"/>
  <line x1="320" y1="70" x2="320" y2="440" stroke="#334155" stroke-width="5"/>
  <line x1="70" y1="190" x2="440" y2="190" stroke="#334155" stroke-width="5"/>
  <line x1="70" y1="320" x2="440" y2="320" stroke="#334155" stroke-width="5"/>
</svg>
